<svg width="395" height="87" viewBox="0 0 395 87" fill="none" xmlns="http://www.w3.org/2000/svg">
<g filter="url(#filter0_i_6_410)">
<rect width="395" height="87" rx="11" fill="#2194FF"/>
</g>
<rect x="2" y="2" width="391" height="83" rx="9" stroke="url(#paint0_linear_6_410)" stroke-width="4"/>
<path opacity="0.31" d="M386 29.3339V17.5105C385.928 15.2613 385.05 13.1313 383.553 11.5729C382.055 10.0146 380.056 9.15076 377.981 9.16512H16.7151C15.7032 9.16381 14.7009 9.37863 13.7655 9.79731C12.8301 10.216 11.9799 10.8304 11.2635 11.6053C10.5471 12.3802 9.97849 13.3006 9.59011 14.3138C9.20173 15.327 9.00121 16.4132 9 17.5105V53.1807C9 53.1807 57.4569 35.0108 160.611 28.7642C256.502 22.9575 386 29.3339 386 29.3339Z" fill="url(#paint1_linear_6_410)"/>
<path opacity="0.15" d="M12 78.1896H378.29C379.302 78.1909 380.304 77.976 381.24 77.5571C382.175 77.1382 383.025 76.5236 383.741 75.7484C384.457 74.9731 385.025 74.0525 385.413 73.0392C385.801 72.0258 386 70.9396 386 69.8427V52.1803C386 52.1803 370.662 68.6346 287.434 72.0392C214.669 75.0345 12 78.1896 12 78.1896Z" fill="white"/>
<g filter="url(#filter1_d_6_410)">
<path d="M63.3296 32.81C67.0696 33.03 69.7096 33.14 71.2496 33.14C71.587 33.14 71.851 33.0447 72.0416 32.854C72.247 32.6487 72.3496 32.3773 72.3496 32.04V31.16C72.3496 30.28 71.9096 29.84 71.0296 29.84H65.7496V26.76H70.5896C71.4696 26.76 71.9096 26.32 71.9096 25.44V25C71.9096 24.12 71.4696 23.68 70.5896 23.68H63.5496V20.6H71.6896C73.127 20.6 74.183 20.93 74.8576 21.59C75.5323 22.2353 75.8696 23.2253 75.8696 24.56C75.8696 25.44 75.6643 26.1587 75.2536 26.716C74.8576 27.2587 74.3296 27.64 73.6696 27.86C74.8576 28.1827 75.6643 28.9747 76.0896 30.236C76.2363 30.6907 76.3096 31.2187 76.3096 31.82V32.04C76.3096 33.4773 75.9723 34.5333 75.2976 35.208C74.623 35.8827 73.567 36.22 72.1296 36.22C69.6803 36.22 66.747 36.0733 63.3296 35.78V32.81ZM82.6819 33.14C83.4592 33.14 84.3392 32.9933 85.3219 32.7V31.38H82.1319C81.9119 31.38 81.7286 31.4533 81.5819 31.6C81.4352 31.7467 81.3619 31.93 81.3619 32.15V32.37C81.3619 32.59 81.4352 32.7733 81.5819 32.92C81.7286 33.0667 81.9119 33.14 82.1319 33.14H82.6819ZM78.6119 24.56C81.2959 24.2667 83.7159 24.12 85.8719 24.12C86.8692 24.12 87.6686 24.4207 88.2699 25.022C88.8712 25.6233 89.1719 26.4227 89.1719 27.42V36H85.7619L85.5419 34.9C84.8526 35.3547 84.1412 35.692 83.4079 35.912C82.6892 36.1173 82.0806 36.22 81.5819 36.22H80.8119C79.8146 36.22 79.0152 35.9193 78.4139 35.318C77.8126 34.7167 77.5119 33.9173 77.5119 32.92V31.93C77.5119 30.9327 77.8126 30.1333 78.4139 29.532C79.0152 28.9307 79.8146 28.63 80.8119 28.63H85.3219V27.75C85.3219 27.53 85.2486 27.3467 85.1019 27.2C84.9552 27.0533 84.7719 26.98 84.5519 26.98C83.5986 26.98 82.5426 27.024 81.3839 27.112C80.2399 27.2 79.3159 27.266 78.6119 27.31V24.56ZM96.6459 31.6H94.9959V36H91.1459V24.34H94.9959V28.63H96.7559L97.9659 26.21C98.4059 25.2713 99.0952 24.6333 100.034 24.296C100.371 24.1787 100.694 24.12 101.002 24.12C101.501 24.12 101.955 24.1567 102.366 24.23L102.916 24.34V27.31H102.146C101.647 27.31 101.281 27.53 101.046 27.97L99.9459 30.17L103.246 36H99.0659L96.6459 31.6ZM108.957 33.14C109.735 33.14 110.615 32.9933 111.597 32.7V31.38H108.407C108.187 31.38 108.004 31.4533 107.857 31.6C107.711 31.7467 107.637 31.93 107.637 32.15V32.37C107.637 32.59 107.711 32.7733 107.857 32.92C108.004 33.0667 108.187 33.14 108.407 33.14H108.957ZM104.887 24.56C107.571 24.2667 109.991 24.12 112.147 24.12C113.145 24.12 113.944 24.4207 114.545 25.022C115.147 25.6233 115.447 26.4227 115.447 27.42V36H112.037L111.817 34.9C111.128 35.3547 110.417 35.692 109.683 35.912C108.965 36.1173 108.356 36.22 107.857 36.22H107.087C106.09 36.22 105.291 35.9193 104.689 35.318C104.088 34.7167 103.787 33.9173 103.787 32.92V31.93C103.787 30.9327 104.088 30.1333 104.689 29.532C105.291 28.9307 106.09 28.63 107.087 28.63H111.597V27.75C111.597 27.53 111.524 27.3467 111.377 27.2C111.231 27.0533 111.047 26.98 110.827 26.98C109.874 26.98 108.818 27.024 107.659 27.112C106.515 27.2 105.591 27.266 104.887 27.31V24.56ZM116.761 33.14C119.563 33.36 121.763 33.47 123.361 33.47C123.581 33.47 123.765 33.3967 123.911 33.25C124.058 33.1033 124.131 32.92 124.131 32.7V32.37C124.131 32.15 124.058 31.9667 123.911 31.82C123.765 31.6733 123.581 31.6 123.361 31.6H118.521V28.85H122.921C123.141 28.85 123.325 28.7767 123.471 28.63C123.618 28.4833 123.691 28.3 123.691 28.08V27.86C123.691 27.64 123.618 27.4567 123.471 27.31C123.325 27.1633 123.141 27.09 122.921 27.09H116.981V24.34H124.241C125.224 24.34 126.016 24.6333 126.617 25.22C127.233 25.792 127.541 26.4373 127.541 27.156C127.541 28.6227 126.881 29.5173 125.561 29.84C126.221 29.9573 126.786 30.28 127.255 30.808C127.739 31.336 127.981 32.0693 127.981 33.008C127.981 33.9467 127.681 34.7167 127.079 35.318C126.478 35.9193 125.679 36.22 124.681 36.22C122.232 36.22 119.592 36.0733 116.761 35.78V33.14ZM134.137 33.14C134.914 33.14 135.794 32.9933 136.777 32.7V31.38H133.587C133.367 31.38 133.184 31.4533 133.037 31.6C132.89 31.7467 132.817 31.93 132.817 32.15V32.37C132.817 32.59 132.89 32.7733 133.037 32.92C133.184 33.0667 133.367 33.14 133.587 33.14H134.137ZM130.067 24.56C132.751 24.2667 135.171 24.12 137.327 24.12C138.324 24.12 139.124 24.4207 139.725 25.022C140.326 25.6233 140.627 26.4227 140.627 27.42V36H137.217L136.997 34.9C136.308 35.3547 135.596 35.692 134.863 35.912C134.144 36.1173 133.536 36.22 133.037 36.22H132.267C131.27 36.22 130.47 35.9193 129.869 35.318C129.268 34.7167 128.967 33.9173 128.967 32.92V31.93C128.967 30.9327 129.268 30.1333 129.869 29.532C130.47 28.9307 131.27 28.63 132.267 28.63H136.777V27.75C136.777 27.53 136.704 27.3467 136.557 27.2C136.41 27.0533 136.227 26.98 136.007 26.98C135.054 26.98 133.998 27.024 132.839 27.112C131.695 27.2 130.771 27.266 130.067 27.31V24.56ZM149.201 27.31V36H145.351V27.31H141.721V24.34H152.831V27.31H149.201ZM154.16 36V24.34H158.01V27.97H162.52C163.517 27.97 164.316 28.2707 164.918 28.872C165.519 29.4733 165.82 30.2727 165.82 31.27V32.7C165.82 33.6973 165.519 34.4967 164.918 35.098C164.316 35.6993 163.517 36 162.52 36H154.16ZM161.2 33.25C161.42 33.25 161.603 33.1767 161.75 33.03C161.896 32.8833 161.97 32.7 161.97 32.48V31.49C161.97 31.27 161.896 31.0867 161.75 30.94C161.603 30.7933 161.42 30.72 161.2 30.72H158.01V33.25H161.2ZM179.117 30.5C179.043 31.5267 178.75 32.37 178.237 33.03H182.087V27.31H179.337L179.117 30.5ZM185.937 24.34V33.03H187.587V38.64H183.935L183.715 36H176.939L176.719 38.64H173.067V33.03H174.497C175.083 32.3407 175.413 31.5707 175.487 30.72L175.927 24.34H185.937ZM201.016 32.7C201.016 33.8 200.701 34.6653 200.07 35.296C199.454 35.912 198.596 36.22 197.496 36.22H192.436C191.336 36.22 190.471 35.912 189.84 35.296C189.224 34.6653 188.916 33.8 188.916 32.7V27.64C188.916 26.54 189.224 25.682 189.84 25.066C190.471 24.4353 191.336 24.12 192.436 24.12H197.496C198.596 24.12 199.454 24.4353 200.07 25.066C200.701 25.682 201.016 26.54 201.016 27.64V32.7ZM197.166 27.97C197.166 27.3833 196.873 27.09 196.286 27.09H193.646C193.059 27.09 192.766 27.3833 192.766 27.97V32.37C192.766 32.9567 193.059 33.25 193.646 33.25H196.286C196.873 33.25 197.166 32.9567 197.166 32.37V27.97ZM213.334 35.78C210.591 36.0733 208.171 36.22 206.074 36.22C205.076 36.22 204.277 35.9193 203.676 35.318C203.074 34.7167 202.774 33.9173 202.774 32.92V27.86C202.774 26.76 203.082 25.902 203.698 25.286C204.328 24.6553 205.194 24.34 206.294 24.34H213.334V27.31H207.504C206.917 27.31 206.624 27.6033 206.624 28.19V32.48C206.624 32.7 206.697 32.8833 206.844 33.03C206.99 33.1767 207.174 33.25 207.394 33.25C208.714 33.25 210.694 33.14 213.334 32.92V35.78ZM221.689 27.31V36H217.839V27.31H214.209V24.34H225.319V27.31H221.689ZM230.838 33.14C231.615 33.14 232.495 32.9933 233.478 32.7V31.38H230.288C230.068 31.38 229.885 31.4533 229.738 31.6C229.591 31.7467 229.518 31.93 229.518 32.15V32.37C229.518 32.59 229.591 32.7733 229.738 32.92C229.885 33.0667 230.068 33.14 230.288 33.14H230.838ZM226.768 24.56C229.452 24.2667 231.872 24.12 234.028 24.12C235.025 24.12 235.825 24.4207 236.426 25.022C237.027 25.6233 237.328 26.4227 237.328 27.42V36H233.918L233.698 34.9C233.009 35.3547 232.297 35.692 231.564 35.912C230.845 36.1173 230.237 36.22 229.738 36.22H228.968C227.971 36.22 227.171 35.9193 226.57 35.318C225.969 34.7167 225.668 33.9173 225.668 32.92V31.93C225.668 30.9327 225.969 30.1333 226.57 29.532C227.171 28.9307 227.971 28.63 228.968 28.63H233.478V27.75C233.478 27.53 233.405 27.3467 233.258 27.2C233.111 27.0533 232.928 26.98 232.708 26.98C231.755 26.98 230.699 27.024 229.54 27.112C228.396 27.2 227.472 27.266 226.768 27.31V24.56ZM247.662 36H239.302V24.34H247.002C247.985 24.34 248.777 24.6333 249.378 25.22C249.994 25.792 250.302 26.4373 250.302 27.156C250.302 27.8747 250.148 28.4613 249.84 28.916C249.532 29.3707 249.099 29.6787 248.542 29.84C249.202 29.9573 249.767 30.28 250.236 30.808C250.72 31.336 250.962 32.04 250.962 32.92C250.962 33.8 250.654 34.5333 250.038 35.12C249.437 35.7067 248.645 36 247.662 36ZM247.112 32.26C247.112 32.04 247.039 31.8567 246.892 31.71C246.745 31.5633 246.562 31.49 246.342 31.49H243.152V33.36H246.342C246.562 33.36 246.745 33.2867 246.892 33.14C247.039 32.9933 247.112 32.81 247.112 32.59V32.26ZM246.452 27.75C246.452 27.53 246.379 27.3467 246.232 27.2C246.085 27.0533 245.902 26.98 245.682 26.98H243.152V28.96H245.682C245.902 28.96 246.085 28.8867 246.232 28.74C246.379 28.5933 246.452 28.41 246.452 28.19V27.75ZM257.994 31.6H256.344V36H252.494V24.34H256.344V28.63H258.104L259.314 26.21C259.754 25.2713 260.443 24.6333 261.382 24.296C261.719 24.1787 262.042 24.12 262.35 24.12C262.848 24.12 263.303 24.1567 263.714 24.23L264.264 24.34V27.31H263.494C262.995 27.31 262.628 27.53 262.394 27.97L261.294 30.17L264.594 36H260.414L257.994 31.6ZM268.765 39.96C267.988 39.96 267.034 39.8867 265.905 39.74V36.88H267.885C268.442 36.88 268.802 36.726 268.963 36.418C269.139 36.11 269.11 35.6773 268.875 35.12L264.365 24.34H268.435L271.185 31.82L273.495 24.34H277.565L273.165 36.44C272.74 37.5987 272.19 38.4713 271.515 39.058C270.84 39.6593 269.924 39.96 268.765 39.96ZM294.288 24.34V27.31H288.678V36H284.828V24.34H294.288ZM299.567 33.14C300.344 33.14 301.224 32.9933 302.207 32.7V31.38H299.017C298.797 31.38 298.613 31.4533 298.467 31.6C298.32 31.7467 298.247 31.93 298.247 32.15V32.37C298.247 32.59 298.32 32.7733 298.467 32.92C298.613 33.0667 298.797 33.14 299.017 33.14H299.567ZM295.497 24.56C298.181 24.2667 300.601 24.12 302.757 24.12C303.754 24.12 304.553 24.4207 305.155 25.022C305.756 25.6233 306.057 26.4227 306.057 27.42V36H302.647L302.427 34.9C301.737 35.3547 301.026 35.692 300.293 35.912C299.574 36.1173 298.965 36.22 298.467 36.22H297.697C296.699 36.22 295.9 35.9193 295.299 35.318C294.697 34.7167 294.397 33.9173 294.397 32.92V31.93C294.397 30.9327 294.697 30.1333 295.299 29.532C295.9 28.9307 296.699 28.63 297.697 28.63H302.207V27.75C302.207 27.53 302.133 27.3467 301.987 27.2C301.84 27.0533 301.657 26.98 301.437 26.98C300.483 26.98 299.427 27.024 298.269 27.112C297.125 27.2 296.201 27.266 295.497 27.31V24.56ZM307.371 33.14C310.172 33.36 312.372 33.47 313.971 33.47C314.191 33.47 314.374 33.3967 314.521 33.25C314.667 33.1033 314.741 32.92 314.741 32.7V32.37C314.741 32.15 314.667 31.9667 314.521 31.82C314.374 31.6733 314.191 31.6 313.971 31.6H309.131V28.85H313.531C313.751 28.85 313.934 28.7767 314.081 28.63C314.227 28.4833 314.301 28.3 314.301 28.08V27.86C314.301 27.64 314.227 27.4567 314.081 27.31C313.934 27.1633 313.751 27.09 313.531 27.09H307.591V24.34H314.851C315.833 24.34 316.625 24.6333 317.227 25.22C317.843 25.792 318.151 26.4373 318.151 27.156C318.151 28.6227 317.491 29.5173 316.171 29.84C316.831 29.9573 317.395 30.28 317.865 30.808C318.349 31.336 318.591 32.0693 318.591 33.008C318.591 33.9467 318.29 34.7167 317.689 35.318C317.087 35.9193 316.288 36.22 315.291 36.22C312.841 36.22 310.201 36.0733 307.371 35.78V33.14ZM324.746 33.14C325.524 33.14 326.404 32.9933 327.386 32.7V31.38H324.196C323.976 31.38 323.793 31.4533 323.646 31.6C323.5 31.7467 323.426 31.93 323.426 32.15V32.37C323.426 32.59 323.5 32.7733 323.646 32.92C323.793 33.0667 323.976 33.14 324.196 33.14H324.746ZM320.676 24.56C323.36 24.2667 325.78 24.12 327.936 24.12C328.934 24.12 329.733 24.4207 330.334 25.022C330.936 25.6233 331.236 26.4227 331.236 27.42V36H327.826L327.606 34.9C326.917 35.3547 326.206 35.692 325.472 35.912C324.754 36.1173 324.145 36.22 323.646 36.22H322.876C321.879 36.22 321.08 35.9193 320.478 35.318C319.877 34.7167 319.576 33.9173 319.576 32.92V31.93C319.576 30.9327 319.877 30.1333 320.478 29.532C321.08 28.9307 321.879 28.63 322.876 28.63H327.386V27.75C327.386 27.53 327.313 27.3467 327.166 27.2C327.02 27.0533 326.836 26.98 326.616 26.98C325.663 26.98 324.607 27.024 323.448 27.112C322.304 27.2 321.38 27.266 320.676 27.31V24.56ZM132.345 63H123.985V51.34H131.685C132.667 51.34 133.459 51.6333 134.061 52.22C134.677 52.792 134.985 53.4373 134.985 54.156C134.985 54.8747 134.831 55.4613 134.523 55.916C134.215 56.3707 133.782 56.6787 133.225 56.84C133.885 56.9573 134.449 57.28 134.919 57.808C135.403 58.336 135.645 59.04 135.645 59.92C135.645 60.8 135.337 61.5333 134.721 62.12C134.119 62.7067 133.327 63 132.345 63ZM131.795 59.26C131.795 59.04 131.721 58.8567 131.575 58.71C131.428 58.5633 131.245 58.49 131.025 58.49H127.835V60.36H131.025C131.245 60.36 131.428 60.2867 131.575 60.14C131.721 59.9933 131.795 59.81 131.795 59.59V59.26ZM131.135 54.75C131.135 54.53 131.061 54.3467 130.915 54.2C130.768 54.0533 130.585 53.98 130.365 53.98H127.835V55.96H130.365C130.585 55.96 130.768 55.8867 130.915 55.74C131.061 55.5933 131.135 55.41 131.135 55.19V54.75ZM153.232 51.34V54.31H147.622V63H143.772V51.34H153.232ZM158.511 60.14C159.288 60.14 160.168 59.9933 161.151 59.7V58.38H157.961C157.741 58.38 157.558 58.4533 157.411 58.6C157.264 58.7467 157.191 58.93 157.191 59.15V59.37C157.191 59.59 157.264 59.7733 157.411 59.92C157.558 60.0667 157.741 60.14 157.961 60.14H158.511ZM154.441 51.56C157.125 51.2667 159.545 51.12 161.701 51.12C162.698 51.12 163.498 51.4207 164.099 52.022C164.7 52.6233 165.001 53.4227 165.001 54.42V63H161.591L161.371 61.9C160.682 62.3547 159.97 62.692 159.237 62.912C158.518 63.1173 157.91 63.22 157.411 63.22H156.641C155.644 63.22 154.844 62.9193 154.243 62.318C153.642 61.7167 153.341 60.9173 153.341 59.92V58.93C153.341 57.9327 153.642 57.1333 154.243 56.532C154.844 55.9307 155.644 55.63 156.641 55.63H161.151V54.75C161.151 54.53 161.078 54.3467 160.931 54.2C160.784 54.0533 160.601 53.98 160.381 53.98C159.428 53.98 158.372 54.024 157.213 54.112C156.069 54.2 155.145 54.266 154.441 54.31V51.56ZM166.315 60.14C169.116 60.36 171.316 60.47 172.915 60.47C173.135 60.47 173.318 60.3967 173.465 60.25C173.612 60.1033 173.685 59.92 173.685 59.7V59.37C173.685 59.15 173.612 58.9667 173.465 58.82C173.318 58.6733 173.135 58.6 172.915 58.6H168.075V55.85H172.475C172.695 55.85 172.878 55.7767 173.025 55.63C173.172 55.4833 173.245 55.3 173.245 55.08V54.86C173.245 54.64 173.172 54.4567 173.025 54.31C172.878 54.1633 172.695 54.09 172.475 54.09H166.535V51.34H173.795C174.778 51.34 175.57 51.6333 176.171 52.22C176.787 52.792 177.095 53.4373 177.095 54.156C177.095 55.6227 176.435 56.5173 175.115 56.84C175.775 56.9573 176.34 57.28 176.809 57.808C177.293 58.336 177.535 59.0693 177.535 60.008C177.535 60.9467 177.234 61.7167 176.633 62.318C176.032 62.9193 175.232 63.22 174.235 63.22C171.786 63.22 169.146 63.0733 166.315 62.78V60.14ZM188.531 51.34V54.31H182.921V63H179.071V51.34H188.531ZM201.736 59.7C201.736 60.8 201.421 61.6653 200.79 62.296C200.174 62.912 199.316 63.22 198.216 63.22H193.156C192.056 63.22 191.191 62.912 190.56 62.296C189.944 61.6653 189.636 60.8 189.636 59.7V54.64C189.636 53.54 189.944 52.682 190.56 52.066C191.191 51.4353 192.056 51.12 193.156 51.12H198.216C199.316 51.12 200.174 51.4353 200.79 52.066C201.421 52.682 201.736 53.54 201.736 54.64V59.7ZM197.886 54.97C197.886 54.3833 197.593 54.09 197.006 54.09H194.366C193.779 54.09 193.486 54.3833 193.486 54.97V59.37C193.486 59.9567 193.779 60.25 194.366 60.25H197.006C197.593 60.25 197.886 59.9567 197.886 59.37V54.97ZM205.033 63.22C204.403 63.22 203.669 63.1467 202.833 63V60.14H203.713C204.271 60.14 204.564 59.8467 204.593 59.26L205.033 51.34H215.593V63H211.743V54.31H208.663L208.333 59.92C208.275 60.9173 207.945 61.7167 207.343 62.318C206.742 62.9193 205.972 63.22 205.033 63.22ZM217.786 63V51.34H221.636V54.97H226.146C227.143 54.97 227.942 55.2707 228.544 55.872C229.145 56.4733 229.446 57.2727 229.446 58.27V59.7C229.446 60.6973 229.145 61.4967 228.544 62.098C227.942 62.6993 227.143 63 226.146 63H217.786ZM224.826 60.25C225.046 60.25 225.229 60.1767 225.376 60.03C225.522 59.8833 225.596 59.7 225.596 59.48V58.49C225.596 58.27 225.522 58.0867 225.376 57.94C225.229 57.7933 225.046 57.72 224.826 57.72H221.636V60.25H224.826ZM236.147 57.5C236.074 58.5267 235.78 59.37 235.267 60.03H239.117V54.31H236.367L236.147 57.5ZM242.967 51.34V60.03H244.617V65.64H240.965L240.745 63H233.969L233.749 65.64H230.097V60.03H231.527C232.114 59.3407 232.444 58.5707 232.517 57.72L232.957 51.34H242.967ZM250.676 53.87C250.09 53.87 249.796 54.1633 249.796 54.75V55.96H253.536V54.75C253.536 54.1633 253.243 53.87 252.656 53.87H250.676ZM256.946 62.78C254.116 63.0733 251.549 63.22 249.246 63.22C248.249 63.22 247.45 62.9193 246.848 62.318C246.247 61.7167 245.946 60.9173 245.946 59.92V54.64C245.946 53.54 246.254 52.682 246.87 52.066C247.501 51.4353 248.366 51.12 249.466 51.12H253.866C254.966 51.12 255.824 51.4353 256.44 52.066C257.071 52.682 257.386 53.54 257.386 54.64V58.71H249.796V59.59C249.796 59.81 249.87 59.9933 250.016 60.14C250.163 60.2867 250.346 60.36 250.566 60.36C252.018 60.36 254.145 60.25 256.946 60.03V62.78ZM265.848 54.31C265.07 54.31 264.19 54.4567 263.208 54.75V60.03H266.508C267.094 60.03 267.388 59.7367 267.388 59.15V55.08C267.388 54.86 267.314 54.6767 267.168 54.53C267.021 54.3833 266.838 54.31 266.618 54.31H265.848ZM263.208 63V66.74H259.358V51.34H262.768L262.988 52.44C263.677 51.9853 264.381 51.6553 265.1 51.45C265.833 51.23 266.449 51.12 266.948 51.12H267.938C268.935 51.12 269.734 51.4207 270.336 52.022C270.937 52.6233 271.238 53.4227 271.238 54.42V59.48C271.238 60.58 270.922 61.4453 270.292 62.076C269.676 62.692 268.818 63 267.718 63H263.208Z" fill="#F1F1F1"/>
</g>
<defs>
<filter id="filter0_i_6_410" x="0" y="0" width="395" height="91" filterUnits="userSpaceOnUse" color-interpolation-filters="sRGB">
<feFlood flood-opacity="0" result="BackgroundImageFix"/>
<feBlend mode="normal" in="SourceGraphic" in2="BackgroundImageFix" result="shape"/>
<feColorMatrix in="SourceAlpha" type="matrix" values="0 0 0 0 0 0 0 0 0 0 0 0 0 0 0 0 0 0 127 0" result="hardAlpha"/>
<feOffset dy="4"/>
<feGaussianBlur stdDeviation="6"/>
<feComposite in2="hardAlpha" operator="arithmetic" k2="-1" k3="1"/>
<feColorMatrix type="matrix" values="0 0 0 0 0 0 0 0 0 0 0 0 0 0 0 0 0 0 0.45 0"/>
<feBlend mode="normal" in2="shape" result="effect1_innerShadow_6_410"/>
</filter>
<filter id="filter1_d_6_410" x="63.3297" y="20.6" width="268.907" height="48.14" filterUnits="userSpaceOnUse" color-interpolation-filters="sRGB">
<feFlood flood-opacity="0" result="BackgroundImageFix"/>
<feColorMatrix in="SourceAlpha" type="matrix" values="0 0 0 0 0 0 0 0 0 0 0 0 0 0 0 0 0 0 127 0" result="hardAlpha"/>
<feOffset dx="1" dy="2"/>
<feComposite in2="hardAlpha" operator="out"/>
<feColorMatrix type="matrix" values="0 0 0 0 0 0 0 0 0 0 0 0 0 0 0 0 0 0 0.25 0"/>
<feBlend mode="normal" in2="BackgroundImageFix" result="effect1_dropShadow_6_410"/>
<feBlend mode="normal" in="SourceGraphic" in2="effect1_dropShadow_6_410" result="shape"/>
</filter>
<linearGradient id="paint0_linear_6_410" x1="-3.72393e-07" y1="32" x2="395" y2="32" gradientUnits="userSpaceOnUse">
<stop stop-color="#2194FF"/>
<stop offset="0.522421" stop-color="#81C0FB"/>
<stop offset="1" stop-color="#108CFF"/>
</linearGradient>
<linearGradient id="paint1_linear_6_410" x1="197.5" y1="-0.269633" x2="197.5" y2="63.5949" gradientUnits="userSpaceOnUse">
<stop stop-color="#81C0FB"/>
<stop offset="1" stop-color="white"/>
</linearGradient>
</defs>
</svg>
