<svg width="395" height="87" viewBox="0 0 395 87" fill="none" xmlns="http://www.w3.org/2000/svg">
<g filter="url(#filter0_i_8_664)">
<rect x="50" width="295" height="87" rx="11" fill="#2194FF"/>
</g>
<rect x="52" y="2" width="291" height="83" rx="9" stroke="url(#paint0_linear_8_664)" stroke-width="4"/>
<path opacity="0.31" d="M338 30.1792V18.3558C337.946 16.1066 337.292 13.9766 336.176 12.4182C335.06 10.8599 333.57 9.99607 332.023 10.0104H62.7505C61.9963 10.0091 61.2492 10.2239 60.552 10.6426C59.8548 11.0613 59.2211 11.6757 58.6871 12.4506C58.1532 13.2255 57.7293 14.1459 57.4398 15.1591C57.1504 16.1723 57.0009 17.2585 57 18.3558V54.0259C57 54.0259 93.1178 35.856 170.005 29.6095C241.478 23.8027 338 30.1792 338 30.1792Z" fill="url(#paint1_linear_8_664)"/>
<path opacity="0.15" d="M59 79.0347H332.248C333.003 79.036 333.751 78.8211 334.449 78.4022C335.147 77.9833 335.781 77.3687 336.315 76.5935C336.849 75.8183 337.273 74.8977 337.562 73.8843C337.851 72.871 338 71.7848 338 70.6878V53.0256C338 53.0256 326.558 69.4797 264.47 72.8844C210.189 75.8797 59 79.0347 59 79.0347Z" fill="white"/>
<g filter="url(#filter1_d_8_664)">
<path d="M118.75 47.52C122.83 47.76 125.71 47.88 127.39 47.88C127.758 47.88 128.046 47.776 128.254 47.568C128.478 47.344 128.59 47.048 128.59 46.68V45.72C128.59 44.76 128.11 44.28 127.15 44.28H121.39V40.92H126.67C127.63 40.92 128.11 40.44 128.11 39.48V39C128.11 38.04 127.63 37.56 126.67 37.56H118.99V34.2H127.87C129.438 34.2 130.59 34.56 131.326 35.28C132.062 35.984 132.43 37.064 132.43 38.52C132.43 39.48 132.206 40.264 131.758 40.872C131.326 41.464 130.75 41.88 130.03 42.12C131.326 42.472 132.206 43.336 132.67 44.712C132.83 45.208 132.91 45.784 132.91 46.44V46.68C132.91 48.248 132.542 49.4 131.806 50.136C131.07 50.872 129.918 51.24 128.35 51.24C125.678 51.24 122.478 51.08 118.75 50.76V47.52ZM139.861 47.88C140.709 47.88 141.669 47.72 142.741 47.4V45.96H139.261C139.021 45.96 138.821 46.04 138.661 46.2C138.501 46.36 138.421 46.56 138.421 46.8V47.04C138.421 47.28 138.501 47.48 138.661 47.64C138.821 47.8 139.021 47.88 139.261 47.88H139.861ZM135.421 38.52C138.349 38.2 140.989 38.04 143.341 38.04C144.429 38.04 145.301 38.368 145.957 39.024C146.613 39.68 146.941 40.552 146.941 41.64V51H143.221L142.981 49.8C142.229 50.296 141.453 50.664 140.653 50.904C139.869 51.128 139.205 51.24 138.661 51.24H137.821C136.733 51.24 135.861 50.912 135.205 50.256C134.549 49.6 134.221 48.728 134.221 47.64V46.56C134.221 45.472 134.549 44.6 135.205 43.944C135.861 43.288 136.733 42.96 137.821 42.96H142.741V42C142.741 41.76 142.661 41.56 142.501 41.4C142.341 41.24 142.141 41.16 141.901 41.16C140.861 41.16 139.709 41.208 138.445 41.304C137.197 41.4 136.189 41.472 135.421 41.52V38.52ZM155.095 46.2H153.295V51H149.095V38.28H153.295V42.96H155.215L156.535 40.32C157.015 39.296 157.767 38.6 158.791 38.232C159.159 38.104 159.511 38.04 159.847 38.04C160.391 38.04 160.887 38.08 161.335 38.16L161.935 38.28V41.52H161.095C160.551 41.52 160.151 41.76 159.895 42.24L158.695 44.64L162.295 51H157.735L155.095 46.2ZM168.525 47.88C169.373 47.88 170.333 47.72 171.405 47.4V45.96H167.925C167.685 45.96 167.485 46.04 167.325 46.2C167.165 46.36 167.085 46.56 167.085 46.8V47.04C167.085 47.28 167.165 47.48 167.325 47.64C167.485 47.8 167.685 47.88 167.925 47.88H168.525ZM164.085 38.52C167.013 38.2 169.653 38.04 172.005 38.04C173.093 38.04 173.965 38.368 174.621 39.024C175.277 39.68 175.605 40.552 175.605 41.64V51H171.885L171.645 49.8C170.893 50.296 170.117 50.664 169.317 50.904C168.533 51.128 167.869 51.24 167.325 51.24H166.485C165.397 51.24 164.525 50.912 163.869 50.256C163.213 49.6 162.885 48.728 162.885 47.64V46.56C162.885 45.472 163.213 44.6 163.869 43.944C164.525 43.288 165.397 42.96 166.485 42.96H171.405V42C171.405 41.76 171.325 41.56 171.165 41.4C171.005 41.24 170.805 41.16 170.565 41.16C169.525 41.16 168.373 41.208 167.109 41.304C165.861 41.4 164.853 41.472 164.085 41.52V38.52ZM177.039 47.88C180.095 48.12 182.495 48.24 184.239 48.24C184.479 48.24 184.679 48.16 184.839 48C184.999 47.84 185.079 47.64 185.079 47.4V47.04C185.079 46.8 184.999 46.6 184.839 46.44C184.679 46.28 184.479 46.2 184.239 46.2H178.959V43.2H183.759C183.999 43.2 184.199 43.12 184.359 42.96C184.519 42.8 184.599 42.6 184.599 42.36V42.12C184.599 41.88 184.519 41.68 184.359 41.52C184.199 41.36 183.999 41.28 183.759 41.28H177.279V38.28H185.199C186.271 38.28 187.135 38.6 187.791 39.24C188.463 39.864 188.799 40.568 188.799 41.352C188.799 42.952 188.079 43.928 186.639 44.28C187.359 44.408 187.975 44.76 188.487 45.336C189.015 45.912 189.279 46.712 189.279 47.736C189.279 48.76 188.951 49.6 188.295 50.256C187.639 50.912 186.767 51.24 185.679 51.24C183.007 51.24 180.127 51.08 177.039 50.76V47.88ZM195.994 47.88C196.842 47.88 197.802 47.72 198.874 47.4V45.96H195.394C195.154 45.96 194.954 46.04 194.794 46.2C194.634 46.36 194.554 46.56 194.554 46.8V47.04C194.554 47.28 194.634 47.48 194.794 47.64C194.954 47.8 195.154 47.88 195.394 47.88H195.994ZM191.554 38.52C194.482 38.2 197.122 38.04 199.474 38.04C200.562 38.04 201.434 38.368 202.09 39.024C202.746 39.68 203.074 40.552 203.074 41.64V51H199.354L199.114 49.8C198.362 50.296 197.586 50.664 196.786 50.904C196.002 51.128 195.338 51.24 194.794 51.24H193.954C192.866 51.24 191.994 50.912 191.338 50.256C190.682 49.6 190.354 48.728 190.354 47.64V46.56C190.354 45.472 190.682 44.6 191.338 43.944C191.994 43.288 192.866 42.96 193.954 42.96H198.874V42C198.874 41.76 198.794 41.56 198.634 41.4C198.474 41.24 198.274 41.16 198.034 41.16C196.994 41.16 195.842 41.208 194.578 41.304C193.33 41.4 192.322 41.472 191.554 41.52V38.52ZM212.427 41.52V51H208.227V41.52H204.267V38.28H216.387V41.52H212.427ZM217.837 51V38.28H222.037V42.24H226.957C228.045 42.24 228.917 42.568 229.573 43.224C230.229 43.88 230.557 44.752 230.557 45.84V47.4C230.557 48.488 230.229 49.36 229.573 50.016C228.917 50.672 228.045 51 226.957 51H217.837ZM225.517 48C225.757 48 225.957 47.92 226.117 47.76C226.277 47.6 226.357 47.4 226.357 47.16V46.08C226.357 45.84 226.277 45.64 226.117 45.48C225.957 45.32 225.757 45.24 225.517 45.24H222.037V48H225.517ZM249.743 38.28V41.52H243.623V51H239.423V38.28H249.743ZM255.502 47.88C256.35 47.88 257.31 47.72 258.382 47.4V45.96H254.902C254.662 45.96 254.462 46.04 254.302 46.2C254.142 46.36 254.062 46.56 254.062 46.8V47.04C254.062 47.28 254.142 47.48 254.302 47.64C254.462 47.8 254.662 47.88 254.902 47.88H255.502ZM251.062 38.52C253.99 38.2 256.63 38.04 258.982 38.04C260.07 38.04 260.942 38.368 261.598 39.024C262.254 39.68 262.582 40.552 262.582 41.64V51H258.862L258.622 49.8C257.87 50.296 257.094 50.664 256.294 50.904C255.51 51.128 254.846 51.24 254.302 51.24H253.462C252.374 51.24 251.502 50.912 250.846 50.256C250.19 49.6 249.862 48.728 249.862 47.64V46.56C249.862 45.472 250.19 44.6 250.846 43.944C251.502 43.288 252.374 42.96 253.462 42.96H258.382V42C258.382 41.76 258.302 41.56 258.142 41.4C257.982 41.24 257.782 41.16 257.542 41.16C256.502 41.16 255.35 41.208 254.086 41.304C252.838 41.4 251.83 41.472 251.062 41.52V38.52ZM264.015 47.88C267.071 48.12 269.471 48.24 271.215 48.24C271.455 48.24 271.655 48.16 271.815 48C271.975 47.84 272.055 47.64 272.055 47.4V47.04C272.055 46.8 271.975 46.6 271.815 46.44C271.655 46.28 271.455 46.2 271.215 46.2H265.935V43.2H270.735C270.975 43.2 271.175 43.12 271.335 42.96C271.495 42.8 271.575 42.6 271.575 42.36V42.12C271.575 41.88 271.495 41.68 271.335 41.52C271.175 41.36 270.975 41.28 270.735 41.28H264.255V38.28H272.175C273.247 38.28 274.111 38.6 274.767 39.24C275.439 39.864 275.775 40.568 275.775 41.352C275.775 42.952 275.055 43.928 273.615 44.28C274.335 44.408 274.951 44.76 275.463 45.336C275.991 45.912 276.255 46.712 276.255 47.736C276.255 48.76 275.927 49.6 275.271 50.256C274.615 50.912 273.743 51.24 272.655 51.24C269.983 51.24 267.103 51.08 264.015 50.76V47.88Z" fill="#F1F1F1"/>
</g>
<defs>
<filter id="filter0_i_8_664" x="50" y="0" width="295" height="91" filterUnits="userSpaceOnUse" color-interpolation-filters="sRGB">
<feFlood flood-opacity="0" result="BackgroundImageFix"/>
<feBlend mode="normal" in="SourceGraphic" in2="BackgroundImageFix" result="shape"/>
<feColorMatrix in="SourceAlpha" type="matrix" values="0 0 0 0 0 0 0 0 0 0 0 0 0 0 0 0 0 0 127 0" result="hardAlpha"/>
<feOffset dy="4"/>
<feGaussianBlur stdDeviation="6"/>
<feComposite in2="hardAlpha" operator="arithmetic" k2="-1" k3="1"/>
<feColorMatrix type="matrix" values="0 0 0 0 0 0 0 0 0 0 0 0 0 0 0 0 0 0 0.45 0"/>
<feBlend mode="normal" in2="shape" result="effect1_innerShadow_8_664"/>
</filter>
<filter id="filter1_d_8_664" x="118.75" y="34.2" width="158.506" height="19.04" filterUnits="userSpaceOnUse" color-interpolation-filters="sRGB">
<feFlood flood-opacity="0" result="BackgroundImageFix"/>
<feColorMatrix in="SourceAlpha" type="matrix" values="0 0 0 0 0 0 0 0 0 0 0 0 0 0 0 0 0 0 127 0" result="hardAlpha"/>
<feOffset dx="1" dy="2"/>
<feComposite in2="hardAlpha" operator="out"/>
<feColorMatrix type="matrix" values="0 0 0 0 0 0 0 0 0 0 0 0 0 0 0 0 0 0 0.25 0"/>
<feBlend mode="normal" in2="BackgroundImageFix" result="effect1_dropShadow_8_664"/>
<feBlend mode="normal" in="SourceGraphic" in2="effect1_dropShadow_8_664" result="shape"/>
</filter>
<linearGradient id="paint0_linear_8_664" x1="50" y1="32" x2="345" y2="32" gradientUnits="userSpaceOnUse">
<stop stop-color="#2194FF"/>
<stop offset="0.522421" stop-color="#81C0FB"/>
<stop offset="1" stop-color="#108CFF"/>
</linearGradient>
<linearGradient id="paint1_linear_8_664" x1="197.5" y1="0.575693" x2="197.5" y2="64.4401" gradientUnits="userSpaceOnUse">
<stop stop-color="#81C0FB"/>
<stop offset="1" stop-color="white"/>
</linearGradient>
</defs>
</svg>
