<svg width="22" height="20" viewBox="0 0 22 20" fill="none" xmlns="http://www.w3.org/2000/svg">
<path d="M7.93817 3.14382C8.29412 3.14382 8.5827 2.85524 8.5827 2.49929V1.20142C8.5827 0.845463 8.29412 0.556885 7.93817 0.556885C7.58222 0.556885 7.29364 0.845463 7.29364 1.20142V2.49929C7.29364 2.85524 7.58222 3.14382 7.93817 3.14382Z" fill="#F1F1F1"/>
<path d="M2.09091 5.5046L0.966887 4.85564C0.658586 4.67758 0.26439 4.78329 0.0864564 5.09154C-0.0915203 5.39985 0.014097 5.79404 0.322355 5.97198L1.44638 6.62093C1.75395 6.79857 2.14844 6.69402 2.32681 6.38504C2.50478 6.07673 2.39916 5.68254 2.09091 5.5046Z" fill="#F1F1F1"/>
<path d="M1.44637 12.6314L0.32235 13.2803C-0.246556 13.6087 -0.0129782 14.4831 0.645217 14.4831C0.937276 14.4831 1.01105 14.342 2.09086 13.7477C2.39912 13.5697 2.50473 13.1756 2.32676 12.8673C2.14882 12.559 1.75471 12.4533 1.44637 12.6314Z" fill="#F1F1F1"/>
<path d="M14.4299 6.62092L15.5539 5.97197C15.8622 5.79399 15.9678 5.39984 15.7898 5.09154C15.6119 4.78329 15.2177 4.67758 14.9094 4.85564L13.7854 5.5046C13.4771 5.68258 13.3715 6.07673 13.5495 6.38503C13.7283 6.69483 14.1231 6.79813 14.4299 6.62092Z" fill="#F1F1F1"/>
<path d="M6.63545 11.2589C7.11382 8.63717 9.2253 6.62895 11.8611 6.2831C10.9147 5.17338 9.50726 4.4684 7.93813 4.4684C5.09497 4.4684 2.78192 6.78232 2.78192 9.6265C2.78192 10.9849 3.30979 12.2221 4.17084 13.1442C4.76695 12.2691 5.63702 11.6013 6.63545 11.2589Z" fill="#F1F1F1"/>
<path d="M17.1405 10.5418C16.4106 8.73757 14.6417 7.52026 12.6587 7.52026C9.9997 7.52026 7.85337 9.66371 7.82527 12.3068C5.99458 12.5077 4.60205 14.078 4.60205 15.9203C4.60205 17.9249 6.23233 19.5558 8.23618 19.5558C18.3773 19.5452 17.8224 19.5817 17.999 19.5269C20.2518 19.2727 22 17.3614 22 15.0425C22 12.3944 19.7381 10.3383 17.1405 10.5418Z" fill="#F1F1F1"/>
</svg>
